<svg width="42" height="42" viewBox="0 0 42 42" fill="none" xmlns="http://www.w3.org/2000/svg">
<circle cx="21" cy="21" r="21" fill="white"/>
<path d="M9 12C9 11.6022 9.15804 11.2206 9.43934 10.9393C9.72064 10.658 10.1022 10.5 10.5 10.5H31.5C31.8978 10.5 32.2794 10.658 32.5607 10.9393C32.842 11.2206 33 11.6022 33 12C33 12.3978 32.842 12.7794 32.5607 13.0607C32.2794 13.342 31.8978 13.5 31.5 13.5H10.5C10.1022 13.5 9.72064 13.342 9.43934 13.0607C9.15804 12.7794 9 12.3978 9 12ZM9 21C9 20.6022 9.15804 20.2206 9.43934 19.9393C9.72064 19.658 10.1022 19.5 10.5 19.5H31.5C31.8978 19.5 32.2794 19.658 32.5607 19.9393C32.842 20.2206 33 20.6022 33 21C33 21.3978 32.842 21.7794 32.5607 22.0607C32.2794 22.342 31.8978 22.5 31.5 22.5H10.5C10.1022 22.5 9.72064 22.342 9.43934 22.0607C9.15804 21.7794 9 21.3978 9 21ZM10.5 28.5C10.1022 28.5 9.72064 28.658 9.43934 28.9393C9.15804 29.2206 9 29.6022 9 30C9 30.3978 9.15804 30.7794 9.43934 31.0607C9.72064 31.342 10.1022 31.5 10.5 31.5H31.5C31.8978 31.5 32.2794 31.342 32.5607 31.0607C32.842 30.7794 33 30.3978 33 30C33 29.6022 32.842 29.2206 32.5607 28.9393C32.2794 28.658 31.8978 28.5 31.5 28.5H10.5Z" fill="black"/>
</svg>
