<svg width="42" height="42" viewBox="0 0 42 42" fill="none" xmlns="http://www.w3.org/2000/svg">
<circle cx="21" cy="21" r="21" fill="black"/>
<path d="M13.8329 11.4663L20.5 18.1331L27.1325 11.5009C27.279 11.3449 27.4555 11.2202 27.6514 11.1341C27.8473 11.0481 28.0585 11.0024 28.2725 11C28.7306 11 29.1699 11.182 29.4938 11.5059C29.8177 11.8298 29.9997 12.2691 29.9997 12.7271C30.0037 12.9389 29.9645 13.1492 29.8843 13.3453C29.8041 13.5413 29.6847 13.7189 29.5334 13.8671L22.8145 20.4993L29.5334 27.2179C29.818 27.4964 29.985 27.8735 29.9997 28.2715C29.9997 28.7296 29.8177 29.1689 29.4938 29.4928C29.1699 29.8167 28.7306 29.9986 28.2725 29.9986C28.0524 30.0078 27.8328 29.971 27.6276 29.8907C27.4224 29.8105 27.2362 29.6884 27.0807 29.5323L20.5 22.8655L13.8502 29.515C13.7043 29.6658 13.5299 29.7861 13.3372 29.8691C13.1445 29.9521 12.9373 29.9961 12.7275 29.9986C12.2694 29.9986 11.8301 29.8167 11.5062 29.4928C11.1823 29.1689 11.0003 28.7296 11.0003 28.2715C10.9963 28.0597 11.0355 27.8494 11.1157 27.6534C11.1959 27.4573 11.3153 27.2798 11.4666 27.1316L18.1855 20.4993L11.4666 13.7807C11.182 13.5022 11.015 13.1251 11.0003 12.7271C11.0003 12.2691 11.1823 11.8298 11.5062 11.5059C11.8301 11.182 12.2694 11 12.7275 11C13.142 11.0052 13.5393 11.1727 13.8329 11.4663Z" fill="white"/>
</svg>
