<svg width="42" height="42" viewBox="0 0 42 42" fill="none" xmlns="http://www.w3.org/2000/svg">
<circle cx="21" cy="21" r="21" fill="white"/>
<path d="M29.5377 22.75H25.0168C24.4176 22.7494 23.8425 22.9865 23.4178 23.4092C22.9931 23.832 22.7533 24.4059 22.7512 25.0052V29.526C22.7509 29.8237 22.8093 30.1184 22.923 30.3934C23.0368 30.6685 23.2036 30.9183 23.4141 31.1288C23.6245 31.3392 23.8744 31.5061 24.1494 31.6199C24.4245 31.7336 24.7192 31.792 25.0168 31.7917H29.5377C30.1367 31.7892 30.7104 31.5494 31.1329 31.1247C31.5554 30.7 31.7923 30.1251 31.7917 29.526V25.0052C31.792 24.7091 31.7339 24.4159 31.6207 24.1423C31.5076 23.8687 31.3415 23.6201 31.1322 23.4107C30.9228 23.2013 30.6742 23.0353 30.4006 22.9222C30.127 22.809 29.8338 22.7509 29.5377 22.7512M16.9832 22.75H12.4623C11.8634 22.7534 11.2901 22.9938 10.8677 23.4185C10.4454 23.8432 10.2083 24.4179 10.2083 25.0169V29.5377C10.208 29.8338 10.2661 30.127 10.3793 30.4006C10.4925 30.6742 10.6585 30.9228 10.8678 31.1322C11.0772 31.3416 11.3258 31.5076 11.5994 31.6208C11.873 31.7339 12.1663 31.792 12.4623 31.7917H16.9832C17.5822 31.7923 18.1571 31.5554 18.5818 31.1329C19.0065 30.7104 19.2464 30.1368 19.2488 29.5377V25.0169C19.2492 24.7193 19.1908 24.4245 19.077 24.1495C18.9633 23.8745 18.7964 23.6246 18.5859 23.4141C18.3755 23.2037 18.1256 23.0368 17.8506 22.923C17.5756 22.8093 17.2808 22.7509 16.9832 22.7512M16.9832 10.2084H12.4623C12.1663 10.2081 11.873 10.2662 11.5994 10.3793C11.3258 10.4925 11.0772 10.6585 10.8678 10.8679C10.6585 11.0772 10.4925 11.3258 10.3793 11.5994C10.2661 11.8731 10.208 12.1663 10.2083 12.4624V16.9832C10.2077 17.5823 10.4446 18.1571 10.8671 18.5818C11.2896 19.0065 11.8633 19.2464 12.4623 19.2489H16.9832C17.2808 19.2492 17.5756 19.1908 17.8506 19.077C18.1256 18.9633 18.3755 18.7964 18.5859 18.586C18.7964 18.3755 18.9633 18.1256 19.077 17.8506C19.1908 17.5756 19.2492 17.2808 19.2488 16.9832V12.4624C19.2464 11.8633 19.0065 11.2897 18.5818 10.8672C18.1571 10.4447 17.5822 10.2078 16.9832 10.2084ZM29.5377 10.2084H25.0168C24.4178 10.2078 23.8429 10.4447 23.4182 10.8672C22.9935 11.2897 22.7536 11.8633 22.7512 12.4624V16.9832C22.7515 17.584 22.9903 18.1601 23.4151 18.5849C23.8399 19.0098 24.416 19.2486 25.0168 19.2489H29.5377C30.1367 19.2464 30.7104 19.0065 31.1329 18.5818C31.5554 18.1571 31.7923 17.5823 31.7917 16.9832V12.4624C31.792 12.1663 31.7339 11.8731 31.6207 11.5994C31.5076 11.3258 31.3415 11.0772 31.1322 10.8679C30.9228 10.6585 30.6742 10.4925 30.4006 10.3793C30.127 10.2662 29.8338 10.2081 29.5377 10.2084Z" stroke="black" stroke-width="2" stroke-linecap="round" stroke-linejoin="round"/>
</svg>
