<svg width="42" height="42" viewBox="0 0 42 42" fill="none" xmlns="http://www.w3.org/2000/svg">
<circle cx="21" cy="21" r="21" fill="white"/>
<path d="M17.5 10.5H11.6667C11.0223 10.5 10.5 11.0223 10.5 11.6667V17.5C10.5 18.1443 11.0223 18.6667 11.6667 18.6667H17.5C18.1443 18.6667 18.6667 18.1443 18.6667 17.5V11.6667C18.6667 11.0223 18.1443 10.5 17.5 10.5Z" stroke="black" stroke-width="2" stroke-linecap="round"/>
<path d="M17.5 23.3334H11.6667C11.0223 23.3334 10.5 23.8557 10.5 24.5V30.3334C10.5 30.9777 11.0223 31.5 11.6667 31.5H17.5C18.1443 31.5 18.6667 30.9777 18.6667 30.3334V24.5C18.6667 23.8557 18.1443 23.3334 17.5 23.3334Z" stroke="black" stroke-width="2" stroke-linecap="round"/>
<path d="M30.3333 10.5H24.5C23.8557 10.5 23.3333 11.0223 23.3333 11.6667V17.5C23.3333 18.1443 23.8557 18.6667 24.5 18.6667H30.3333C30.9777 18.6667 31.5 18.1443 31.5 17.5V11.6667C31.5 11.0223 30.9777 10.5 30.3333 10.5Z" stroke="black" stroke-width="2" stroke-linecap="round"/>
<path d="M27.4167 23.3334V31.5M31.5 27.4167H23.3333" stroke="black" stroke-width="2" stroke-linecap="round"/>
</svg>
